<svg width="129" height="31" viewBox="0 0 129 31" fill="none" xmlns="http://www.w3.org/2000/svg">
<path d="M38.544 23V8.768H33.24V6.032H46.824V8.768H41.52V23H38.544ZM51.7472 23.168C50.4352 23.168 49.3152 22.896 48.3872 22.352C47.4752 21.808 46.7792 21.056 46.2992 20.096C45.8352 19.12 45.6032 17.992 45.6032 16.712C45.6032 15.432 45.8432 14.304 46.3232 13.328C46.8192 12.336 47.5232 11.56 48.4352 11C49.3632 10.44 50.4752 10.16 51.7712 10.16C52.7312 10.16 53.5712 10.336 54.2912 10.688C55.0112 11.024 55.6112 11.488 56.0912 12.08C56.5872 12.672 56.9552 13.344 57.1952 14.096C57.4352 14.848 57.5472 15.64 57.5312 16.472C57.5152 16.664 57.4992 16.856 57.4832 17.048C57.4672 17.224 57.4432 17.416 57.4112 17.624H48.5312C48.5792 18.184 48.7232 18.696 48.9632 19.16C49.2192 19.624 49.5712 19.992 50.0192 20.264C50.4832 20.536 51.0592 20.672 51.7472 20.672C52.1472 20.672 52.5312 20.624 52.8992 20.528C53.2672 20.416 53.5872 20.256 53.8592 20.048C54.1472 19.84 54.3392 19.576 54.4352 19.256H57.3632C57.1552 20.168 56.7712 20.912 56.2112 21.488C55.6512 22.064 54.9792 22.488 54.1952 22.76C53.4272 23.032 52.6112 23.168 51.7472 23.168ZM48.5792 15.44H54.6752C54.6752 14.912 54.5552 14.432 54.3152 14C54.0752 13.568 53.7312 13.232 53.2832 12.992C52.8512 12.736 52.3232 12.608 51.6992 12.608C51.0272 12.608 50.4672 12.744 50.0192 13.016C49.5712 13.288 49.2272 13.64 48.9872 14.072C48.7472 14.504 48.6112 14.96 48.5792 15.44ZM58.6644 23V6.032H61.5924V23H58.6644ZM68.8941 23.168C67.5821 23.168 66.4621 22.896 65.5341 22.352C64.6221 21.808 63.9261 21.056 63.4461 20.096C62.9821 19.12 62.7501 17.992 62.7501 16.712C62.7501 15.432 62.9901 14.304 63.4701 13.328C63.9661 12.336 64.6701 11.56 65.5821 11C66.5101 10.44 67.6221 10.16 68.9181 10.16C69.8781 10.16 70.7181 10.336 71.4381 10.688C72.1581 11.024 72.7581 11.488 73.2381 12.08C73.7341 12.672 74.1021 13.344 74.3421 14.096C74.5821 14.848 74.6941 15.64 74.6781 16.472C74.6621 16.664 74.6461 16.856 74.6301 17.048C74.6141 17.224 74.5901 17.416 74.5581 17.624H65.6781C65.7261 18.184 65.8701 18.696 66.1101 19.16C66.3661 19.624 66.7181 19.992 67.1661 20.264C67.6301 20.536 68.2061 20.672 68.8941 20.672C69.2941 20.672 69.6781 20.624 70.0461 20.528C70.4141 20.416 70.7341 20.256 71.0061 20.048C71.2941 19.84 71.4861 19.576 71.5821 19.256H74.5101C74.3021 20.168 73.9181 20.912 73.3581 21.488C72.7981 22.064 72.1261 22.488 71.3421 22.76C70.5741 23.032 69.7581 23.168 68.8941 23.168ZM65.7261 15.44H71.8221C71.8221 14.912 71.7021 14.432 71.4621 14C71.2221 13.568 70.8781 13.232 70.4301 12.992C69.9981 12.736 69.4701 12.608 68.8461 12.608C68.1741 12.608 67.6141 12.744 67.1661 13.016C66.7181 13.288 66.3741 13.64 66.1341 14.072C65.8941 14.504 65.7581 14.96 65.7261 15.44ZM81.6913 28.784C80.7633 28.784 79.8913 28.632 79.0753 28.328C78.2753 28.04 77.5953 27.576 77.0353 26.936C76.4913 26.312 76.1233 25.504 75.9313 24.512H78.9313C79.0273 24.896 79.2193 25.208 79.5073 25.448C79.7953 25.688 80.1313 25.856 80.5153 25.952C80.9153 26.064 81.3233 26.12 81.7393 26.12C82.5233 26.12 83.1393 25.96 83.5873 25.64C84.0513 25.32 84.3793 24.88 84.5713 24.32C84.7633 23.776 84.8593 23.176 84.8593 22.52V21.32C84.5713 21.784 84.2033 22.152 83.7553 22.424C83.3233 22.696 82.8593 22.888 82.3633 23C81.8833 23.096 81.4033 23.144 80.9233 23.144C79.6113 23.144 78.5393 22.856 77.7073 22.28C76.8913 21.704 76.2913 20.936 75.9073 19.976C75.5233 19 75.3313 17.928 75.3313 16.76C75.3313 15.544 75.5393 14.44 75.9553 13.448C76.3873 12.44 77.0273 11.64 77.8753 11.048C78.7393 10.456 79.8193 10.16 81.1153 10.16C81.8673 10.16 82.5713 10.296 83.2273 10.568C83.8993 10.824 84.4593 11.216 84.9073 11.744L85.0993 10.352H87.8113V21.896C87.8113 23.32 87.6033 24.544 87.1873 25.568C86.7873 26.608 86.1393 27.4 85.2433 27.944C84.3473 28.504 83.1633 28.784 81.6913 28.784ZM81.5233 20.552C82.2753 20.552 82.8993 20.376 83.3953 20.024C83.8913 19.656 84.2673 19.176 84.5233 18.584C84.7793 17.976 84.9073 17.32 84.9073 16.616C84.9073 15.896 84.7793 15.248 84.5233 14.672C84.2833 14.096 83.9153 13.64 83.4193 13.304C82.9393 12.968 82.3153 12.8 81.5473 12.8C80.7313 12.8 80.0833 12.984 79.6033 13.352C79.1233 13.72 78.7713 14.208 78.5473 14.816C78.3393 15.408 78.2353 16.04 78.2353 16.712C78.2353 17.416 78.3473 18.064 78.5713 18.656C78.7953 19.232 79.1473 19.696 79.6273 20.048C80.1073 20.384 80.7393 20.552 81.5233 20.552ZM89.4473 23V10.352H92.1113L92.2793 12.008C92.5993 11.528 92.9593 11.16 93.3593 10.904C93.7753 10.632 94.2153 10.44 94.6793 10.328C95.1593 10.216 95.6393 10.16 96.1193 10.16C96.2953 10.16 96.4553 10.16 96.5993 10.16C96.7593 10.16 96.8873 10.168 96.9833 10.184V12.968H96.2153C95.3833 12.968 94.6793 13.128 94.1033 13.448C93.5273 13.768 93.0953 14.224 92.8073 14.816C92.5193 15.408 92.3753 16.136 92.3753 17V23H89.4473ZM101.537 23.168C100.945 23.168 100.385 23.088 99.8571 22.928C99.3291 22.768 98.8571 22.536 98.4411 22.232C98.0251 21.912 97.6891 21.52 97.4331 21.056C97.1931 20.576 97.0731 20.016 97.0731 19.376C97.0731 18.56 97.2331 17.896 97.5531 17.384C97.8731 16.856 98.3051 16.456 98.8491 16.184C99.4091 15.912 100.041 15.728 100.745 15.632C101.449 15.52 102.185 15.464 102.953 15.464H105.425C105.425 14.904 105.337 14.424 105.161 14.024C104.985 13.608 104.705 13.28 104.321 13.04C103.953 12.8 103.473 12.68 102.881 12.68C102.497 12.68 102.137 12.728 101.801 12.824C101.481 12.904 101.201 13.04 100.961 13.232C100.737 13.408 100.577 13.64 100.481 13.928H97.4811C97.5931 13.272 97.8171 12.712 98.1531 12.248C98.5051 11.768 98.9291 11.376 99.4251 11.072C99.9371 10.768 100.497 10.544 101.105 10.4C101.713 10.24 102.329 10.16 102.953 10.16C104.793 10.16 106.129 10.688 106.961 11.744C107.809 12.8 108.233 14.28 108.233 16.184V23H105.641L105.569 21.368C105.201 21.912 104.761 22.312 104.249 22.568C103.737 22.824 103.241 22.984 102.761 23.048C102.281 23.128 101.873 23.168 101.537 23.168ZM102.113 20.792C102.753 20.792 103.321 20.672 103.817 20.432C104.313 20.192 104.705 19.856 104.993 19.424C105.297 18.992 105.449 18.496 105.449 17.936V17.528H103.145C102.761 17.528 102.377 17.544 101.993 17.576C101.625 17.592 101.289 17.656 100.985 17.768C100.681 17.864 100.433 18.016 100.241 18.224C100.065 18.432 99.9771 18.728 99.9771 19.112C99.9771 19.496 100.073 19.808 100.265 20.048C100.473 20.288 100.737 20.472 101.057 20.6C101.393 20.728 101.745 20.792 102.113 20.792ZM109.828 23V10.352H112.516L112.708 11.792C113.028 11.36 113.372 11.032 113.74 10.808C114.124 10.568 114.516 10.4 114.916 10.304C115.332 10.208 115.724 10.16 116.092 10.16C116.892 10.16 117.572 10.32 118.132 10.64C118.708 10.96 119.156 11.44 119.476 12.08C119.796 11.632 120.156 11.272 120.556 11C120.956 10.712 121.38 10.504 121.828 10.376C122.276 10.232 122.748 10.16 123.244 10.16C124.22 10.16 125.004 10.368 125.596 10.784C126.188 11.184 126.62 11.744 126.892 12.464C127.164 13.168 127.3 13.976 127.3 14.888V23H124.372V15.824C124.372 15.504 124.356 15.168 124.324 14.816C124.292 14.464 124.204 14.136 124.06 13.832C123.932 13.528 123.74 13.28 123.484 13.088C123.228 12.896 122.868 12.8 122.404 12.8C121.94 12.8 121.556 12.904 121.252 13.112C120.964 13.304 120.724 13.568 120.532 13.904C120.356 14.224 120.228 14.584 120.148 14.984C120.084 15.368 120.052 15.752 120.052 16.136V23H117.124V15.8C117.124 15.496 117.1 15.176 117.052 14.84C117.02 14.488 116.94 14.16 116.812 13.856C116.7 13.536 116.508 13.28 116.236 13.088C115.98 12.896 115.62 12.8 115.156 12.8C114.484 12.8 113.972 12.984 113.62 13.352C113.284 13.72 113.052 14.168 112.924 14.696C112.812 15.224 112.756 15.728 112.756 16.208V23H109.828Z" fill="#939393"/>
<path d="M0.441574 15.0542L6.20207 17.2042L8.43174 24.3748C8.57441 24.8341 9.13599 25.0038 9.50874 24.6991L12.7197 22.0814C13.0563 21.8071 13.5357 21.7935 13.8875 22.0488L19.679 26.2536C20.0777 26.5434 20.6427 26.3249 20.7427 25.8431L24.9852 5.43548C25.0944 4.90914 24.5772 4.47006 24.0761 4.66389L0.434824 13.784C-0.148593 14.009 -0.14351 14.835 0.441574 15.0542ZM8.07241 16.0597L19.3306 9.12581C19.5329 9.00156 19.7411 9.27514 19.5673 9.43631L10.2761 18.073C9.94949 18.377 9.73882 18.7838 9.67916 19.2254L9.36266 21.5709C9.32074 21.8841 8.88082 21.9151 8.79441 21.6121L7.57716 17.335C7.43774 16.8471 7.64091 16.3261 8.07241 16.0597Z" fill="white"/>
</svg>
